<?xml version="1.0" encoding="UTF-8" standalone="no"?>
<!DOCTYPE svg PUBLIC "-//W3C//DTD SVG 1.1//EN" "http://www.w3.org/Graphics/SVG/1.1/DTD/svg11.dtd">
<svg width="100%" height="100%" viewBox="0 0 600 387" version="1.1" xmlns="http://www.w3.org/2000/svg" xmlns:xlink="http://www.w3.org/1999/xlink" xml:space="preserve" xmlns:serif="http://www.serif.com/" style="fill-rule:evenodd;clip-rule:evenodd;stroke-linecap:round;stroke-linejoin:round;stroke-miterlimit:1.5;">
    <g transform="matrix(1,0,0,1,-940.428666,-1589.94774)">
        <g transform="matrix(1,0,0,1,0,159.822602)">
            <path d="M944.882,1753.937L1018.701,1626.079L1240.157,1626.079L1350.886,1434.292L1535.433,1753.937L944.882,1753.937Z" style="stroke:black;stroke-width:8.33px;"/>
        </g>
        <g transform="matrix(1,0,0,1,-14.5,-4)">
            <g transform="matrix(66.666667,0,0,66.666667,952.820851,1979.494792)">
                <path d="M0.078,0.007C0.064,0.007 0.054,0.004 0.046,-0.002C0.038,-0.008 0.033,-0.016 0.032,-0.026C0.031,-0.036 0.033,-0.047 0.038,-0.06L0.309,-0.668C0.316,-0.684 0.324,-0.695 0.334,-0.702C0.345,-0.709 0.356,-0.712 0.369,-0.712C0.381,-0.712 0.392,-0.709 0.403,-0.702C0.413,-0.695 0.421,-0.684 0.428,-0.668L0.699,-0.06C0.705,-0.047 0.707,-0.036 0.706,-0.025C0.705,-0.015 0.7,-0.007 0.693,-0.001C0.685,0.005 0.675,0.007 0.662,0.007C0.647,0.007 0.635,0.004 0.627,-0.004C0.618,-0.011 0.611,-0.023 0.604,-0.038L0.534,-0.2L0.581,-0.172L0.155,-0.172L0.201,-0.2L0.132,-0.038C0.125,-0.022 0.118,-0.01 0.11,-0.003C0.102,0.004 0.091,0.007 0.078,0.007ZM0.367,-0.59L0.216,-0.232L0.191,-0.256L0.544,-0.256L0.521,-0.232L0.369,-0.59L0.367,-0.59Z" style="fill-rule:nonzero;"/>
            </g>
            <g transform="matrix(66.666667,0,0,66.666667,1001.88104,1979.494792)">
                <path d="M0.135,-0C0.118,-0 0.106,-0.005 0.096,-0.014C0.087,-0.024 0.083,-0.037 0.083,-0.053L0.083,-0.656C0.083,-0.674 0.087,-0.687 0.096,-0.696C0.105,-0.704 0.117,-0.709 0.134,-0.709C0.151,-0.709 0.163,-0.704 0.172,-0.696C0.181,-0.687 0.186,-0.674 0.186,-0.656L0.186,-0.089L0.496,-0.089C0.511,-0.089 0.522,-0.085 0.53,-0.077C0.538,-0.07 0.542,-0.059 0.542,-0.045C0.542,-0.031 0.538,-0.02 0.53,-0.012C0.522,-0.004 0.511,-0 0.496,-0L0.135,-0Z" style="fill-rule:nonzero;"/>
            </g>
            <g transform="matrix(66.666667,0,0,66.666667,1036.206276,1979.494792)">
                <path d="M0.412,0.009C0.335,0.009 0.271,-0.005 0.218,-0.034C0.166,-0.063 0.126,-0.105 0.099,-0.159C0.071,-0.213 0.058,-0.277 0.058,-0.352C0.058,-0.408 0.066,-0.458 0.081,-0.502C0.097,-0.547 0.12,-0.585 0.149,-0.617C0.179,-0.648 0.216,-0.672 0.259,-0.689C0.302,-0.706 0.351,-0.714 0.405,-0.714C0.445,-0.714 0.484,-0.709 0.523,-0.699C0.562,-0.688 0.597,-0.671 0.629,-0.648C0.638,-0.641 0.644,-0.634 0.647,-0.625C0.65,-0.616 0.65,-0.607 0.647,-0.598C0.645,-0.589 0.641,-0.581 0.635,-0.575C0.628,-0.568 0.621,-0.565 0.612,-0.563C0.603,-0.562 0.593,-0.564 0.582,-0.571C0.556,-0.589 0.528,-0.602 0.5,-0.611C0.471,-0.619 0.44,-0.623 0.405,-0.623C0.353,-0.623 0.31,-0.612 0.274,-0.591C0.238,-0.57 0.211,-0.539 0.193,-0.499C0.175,-0.459 0.166,-0.409 0.166,-0.352C0.166,-0.263 0.187,-0.196 0.229,-0.15C0.271,-0.104 0.333,-0.081 0.416,-0.081C0.446,-0.081 0.475,-0.084 0.504,-0.089C0.533,-0.095 0.561,-0.103 0.588,-0.114L0.567,-0.062L0.567,-0.295L0.438,-0.295C0.425,-0.295 0.414,-0.298 0.407,-0.306C0.399,-0.313 0.395,-0.322 0.395,-0.335C0.395,-0.347 0.399,-0.357 0.407,-0.364C0.414,-0.37 0.425,-0.373 0.438,-0.373L0.611,-0.373C0.625,-0.373 0.636,-0.37 0.643,-0.362C0.651,-0.355 0.654,-0.344 0.654,-0.33L0.654,-0.078C0.654,-0.066 0.652,-0.056 0.648,-0.047C0.643,-0.039 0.636,-0.033 0.626,-0.029C0.597,-0.018 0.564,-0.009 0.525,-0.002C0.487,0.006 0.449,0.009 0.412,0.009Z" style="fill-rule:nonzero;"/>
            </g>
            <g transform="matrix(66.666667,0,0,66.666667,1084.925921,1979.494792)">
                <path d="M0.388,0.009C0.321,0.009 0.263,-0.005 0.213,-0.035C0.164,-0.065 0.126,-0.107 0.098,-0.161C0.071,-0.216 0.058,-0.279 0.058,-0.353C0.058,-0.409 0.065,-0.458 0.081,-0.503C0.096,-0.547 0.118,-0.585 0.147,-0.617C0.176,-0.648 0.211,-0.672 0.251,-0.689C0.292,-0.706 0.337,-0.714 0.388,-0.714C0.455,-0.714 0.513,-0.7 0.563,-0.67C0.612,-0.641 0.651,-0.599 0.678,-0.545C0.705,-0.491 0.718,-0.428 0.718,-0.354C0.718,-0.298 0.71,-0.248 0.695,-0.204C0.679,-0.159 0.657,-0.121 0.628,-0.089C0.6,-0.057 0.565,-0.033 0.524,-0.016C0.484,0.001 0.438,0.009 0.388,0.009ZM0.388,-0.081C0.435,-0.081 0.475,-0.091 0.508,-0.113C0.541,-0.134 0.566,-0.165 0.583,-0.206C0.601,-0.247 0.61,-0.296 0.61,-0.353C0.61,-0.439 0.591,-0.506 0.552,-0.553C0.513,-0.601 0.459,-0.624 0.388,-0.624C0.341,-0.624 0.302,-0.614 0.269,-0.593C0.235,-0.571 0.21,-0.54 0.192,-0.5C0.175,-0.459 0.166,-0.41 0.166,-0.353C0.166,-0.268 0.185,-0.201 0.224,-0.153C0.263,-0.105 0.318,-0.081 0.388,-0.081Z" style="fill-rule:nonzero;"/>
            </g>
            <g transform="matrix(66.666667,0,0,66.666667,1154.188462,1979.494792)">
                <path d="M0.132,0.007C0.117,0.007 0.105,0.003 0.097,-0.006C0.089,-0.014 0.085,-0.026 0.085,-0.042L0.085,-0.663C0.085,-0.679 0.089,-0.691 0.097,-0.7C0.106,-0.708 0.118,-0.712 0.132,-0.712C0.146,-0.712 0.157,-0.71 0.164,-0.705C0.172,-0.699 0.179,-0.69 0.186,-0.678L0.448,-0.189L0.417,-0.189L0.678,-0.678C0.685,-0.69 0.692,-0.699 0.699,-0.705C0.707,-0.71 0.717,-0.712 0.731,-0.712C0.746,-0.712 0.757,-0.708 0.765,-0.7C0.773,-0.691 0.777,-0.679 0.777,-0.663L0.777,-0.042C0.777,-0.026 0.773,-0.014 0.766,-0.006C0.758,0.003 0.746,0.007 0.731,0.007C0.715,0.007 0.704,0.003 0.696,-0.006C0.688,-0.014 0.684,-0.026 0.684,-0.042L0.684,-0.558L0.706,-0.558L0.474,-0.129C0.469,-0.119 0.463,-0.112 0.457,-0.107C0.451,-0.103 0.443,-0.1 0.432,-0.1C0.421,-0.1 0.412,-0.103 0.406,-0.108C0.399,-0.113 0.393,-0.12 0.388,-0.129L0.154,-0.559L0.178,-0.559L0.178,-0.042C0.178,-0.026 0.174,-0.014 0.166,-0.006C0.159,0.003 0.147,0.007 0.132,0.007Z" style="fill-rule:nonzero;"/>
            </g>
            <g transform="matrix(66.666667,0,0,66.666667,1211.592433,1979.494792)">
                <path d="M0.388,0.009C0.321,0.009 0.263,-0.005 0.213,-0.035C0.164,-0.065 0.126,-0.107 0.098,-0.161C0.071,-0.216 0.058,-0.279 0.058,-0.353C0.058,-0.409 0.065,-0.458 0.081,-0.503C0.096,-0.547 0.118,-0.585 0.147,-0.617C0.176,-0.648 0.211,-0.672 0.251,-0.689C0.292,-0.706 0.337,-0.714 0.388,-0.714C0.455,-0.714 0.513,-0.7 0.563,-0.67C0.612,-0.641 0.651,-0.599 0.678,-0.545C0.705,-0.491 0.718,-0.428 0.718,-0.354C0.718,-0.298 0.71,-0.248 0.695,-0.204C0.679,-0.159 0.657,-0.121 0.628,-0.089C0.6,-0.057 0.565,-0.033 0.524,-0.016C0.484,0.001 0.438,0.009 0.388,0.009ZM0.388,-0.081C0.435,-0.081 0.475,-0.091 0.508,-0.113C0.541,-0.134 0.566,-0.165 0.583,-0.206C0.601,-0.247 0.61,-0.296 0.61,-0.353C0.61,-0.439 0.591,-0.506 0.552,-0.553C0.513,-0.601 0.459,-0.624 0.388,-0.624C0.341,-0.624 0.302,-0.614 0.269,-0.593C0.235,-0.571 0.21,-0.54 0.192,-0.5C0.175,-0.459 0.166,-0.41 0.166,-0.353C0.166,-0.268 0.185,-0.201 0.224,-0.153C0.263,-0.105 0.318,-0.081 0.388,-0.081Z" style="fill-rule:nonzero;"/>
            </g>
            <g transform="matrix(66.666667,0,0,66.666667,1263.270281,1979.494792)">
                <path d="M0.132,0.007C0.117,0.007 0.105,0.003 0.097,-0.006C0.089,-0.014 0.085,-0.026 0.085,-0.042L0.085,-0.663C0.085,-0.679 0.089,-0.691 0.097,-0.7C0.106,-0.708 0.118,-0.712 0.132,-0.712C0.146,-0.712 0.157,-0.71 0.164,-0.705C0.172,-0.699 0.179,-0.69 0.186,-0.678L0.448,-0.189L0.417,-0.189L0.678,-0.678C0.685,-0.69 0.692,-0.699 0.699,-0.705C0.707,-0.71 0.717,-0.712 0.731,-0.712C0.746,-0.712 0.757,-0.708 0.765,-0.7C0.773,-0.691 0.777,-0.679 0.777,-0.663L0.777,-0.042C0.777,-0.026 0.773,-0.014 0.766,-0.006C0.758,0.003 0.746,0.007 0.731,0.007C0.715,0.007 0.704,0.003 0.696,-0.006C0.688,-0.014 0.684,-0.026 0.684,-0.042L0.684,-0.558L0.706,-0.558L0.474,-0.129C0.469,-0.119 0.463,-0.112 0.457,-0.107C0.451,-0.103 0.443,-0.1 0.432,-0.1C0.421,-0.1 0.412,-0.103 0.406,-0.108C0.399,-0.113 0.393,-0.12 0.388,-0.129L0.154,-0.559L0.178,-0.559L0.178,-0.042C0.178,-0.026 0.174,-0.014 0.166,-0.006C0.159,0.003 0.147,0.007 0.132,0.007Z" style="fill-rule:nonzero;"/>
            </g>
            <g transform="matrix(66.666667,0,0,66.666667,1320.674253,1979.494792)">
                <path d="M0.138,-0C0.12,-0 0.106,-0.005 0.097,-0.014C0.087,-0.024 0.083,-0.038 0.083,-0.056L0.083,-0.649C0.083,-0.667 0.087,-0.681 0.097,-0.691C0.106,-0.7 0.12,-0.705 0.138,-0.705L0.503,-0.705C0.517,-0.705 0.527,-0.701 0.535,-0.694C0.542,-0.687 0.546,-0.677 0.546,-0.664C0.546,-0.65 0.542,-0.64 0.535,-0.632C0.527,-0.625 0.517,-0.621 0.503,-0.621L0.182,-0.621L0.182,-0.4L0.481,-0.4C0.496,-0.4 0.506,-0.396 0.514,-0.389C0.521,-0.382 0.524,-0.372 0.524,-0.358C0.524,-0.344 0.521,-0.334 0.514,-0.327C0.506,-0.32 0.496,-0.316 0.481,-0.316L0.182,-0.316L0.182,-0.084L0.503,-0.084C0.517,-0.084 0.527,-0.08 0.535,-0.073C0.542,-0.066 0.546,-0.056 0.546,-0.042C0.546,-0.028 0.542,-0.018 0.535,-0.011C0.527,-0.004 0.517,-0 0.503,-0L0.138,-0Z" style="fill-rule:nonzero;"/>
            </g>
            <g transform="matrix(66.666667,0,0,66.666667,1359.953721,1979.494792)">
                <path d="M0.131,0.007C0.115,0.007 0.104,0.003 0.095,-0.006C0.087,-0.014 0.083,-0.027 0.083,-0.043L0.083,-0.66C0.083,-0.677 0.087,-0.69 0.095,-0.699C0.103,-0.708 0.114,-0.712 0.128,-0.712C0.14,-0.712 0.15,-0.71 0.156,-0.706C0.162,-0.701 0.17,-0.693 0.178,-0.682L0.59,-0.139L0.565,-0.139L0.565,-0.663C0.565,-0.679 0.569,-0.691 0.578,-0.699C0.586,-0.708 0.598,-0.712 0.613,-0.712C0.629,-0.712 0.641,-0.708 0.649,-0.699C0.657,-0.691 0.661,-0.679 0.661,-0.663L0.661,-0.042C0.661,-0.026 0.657,-0.014 0.65,-0.006C0.642,0.003 0.632,0.007 0.619,0.007C0.607,0.007 0.597,0.005 0.589,0C0.582,-0.005 0.574,-0.013 0.565,-0.024L0.155,-0.566L0.178,-0.566L0.178,-0.043C0.178,-0.027 0.174,-0.014 0.166,-0.006C0.158,0.003 0.146,0.007 0.131,0.007Z" style="fill-rule:nonzero;"/>
            </g>
            <g transform="matrix(66.666667,0,0,66.666667,1409.511924,1979.494792)">
                <path d="M0.306,0.007C0.289,0.007 0.276,0.003 0.268,-0.007C0.259,-0.016 0.254,-0.029 0.254,-0.046L0.254,-0.618L0.042,-0.618C0.028,-0.618 0.017,-0.622 0.009,-0.63C0.001,-0.637 -0.003,-0.648 -0.003,-0.662C-0.003,-0.676 0.001,-0.687 0.009,-0.694C0.017,-0.701 0.028,-0.705 0.042,-0.705L0.569,-0.705C0.584,-0.705 0.595,-0.701 0.603,-0.694C0.611,-0.687 0.615,-0.676 0.615,-0.662C0.615,-0.648 0.611,-0.637 0.603,-0.629C0.595,-0.622 0.584,-0.618 0.569,-0.618L0.357,-0.618L0.357,-0.046C0.357,-0.029 0.353,-0.016 0.345,-0.007C0.336,0.003 0.323,0.007 0.306,0.007Z" style="fill-rule:nonzero;"/>
            </g>
            <g transform="matrix(66.666667,0,0,66.666667,1450.23716,1979.494792)">
                <path d="M0.367,0.009C0.32,0.009 0.278,0.003 0.242,-0.009C0.206,-0.022 0.176,-0.04 0.151,-0.065C0.127,-0.09 0.108,-0.12 0.096,-0.157C0.084,-0.193 0.077,-0.236 0.077,-0.284L0.077,-0.66C0.077,-0.678 0.082,-0.691 0.091,-0.699C0.1,-0.708 0.112,-0.712 0.129,-0.712C0.146,-0.712 0.158,-0.708 0.167,-0.699C0.176,-0.691 0.181,-0.678 0.181,-0.66L0.181,-0.286C0.181,-0.218 0.196,-0.166 0.228,-0.132C0.26,-0.098 0.306,-0.081 0.367,-0.081C0.428,-0.081 0.474,-0.098 0.506,-0.132C0.537,-0.166 0.553,-0.218 0.553,-0.286L0.553,-0.66C0.553,-0.678 0.557,-0.691 0.566,-0.699C0.575,-0.708 0.588,-0.712 0.604,-0.712C0.621,-0.712 0.633,-0.708 0.642,-0.699C0.651,-0.691 0.655,-0.678 0.655,-0.66L0.655,-0.284C0.655,-0.22 0.644,-0.166 0.623,-0.122C0.601,-0.079 0.569,-0.046 0.526,-0.024C0.483,-0.002 0.43,0.009 0.367,0.009Z" style="fill-rule:nonzero;"/>
            </g>
            <g transform="matrix(66.666667,0,0,66.666667,1499.090138,1979.494792)">
                <path d="M0.132,0.007C0.117,0.007 0.105,0.003 0.097,-0.006C0.089,-0.014 0.085,-0.026 0.085,-0.042L0.085,-0.663C0.085,-0.679 0.089,-0.691 0.097,-0.7C0.106,-0.708 0.118,-0.712 0.132,-0.712C0.146,-0.712 0.157,-0.71 0.164,-0.705C0.172,-0.699 0.179,-0.69 0.186,-0.678L0.448,-0.189L0.417,-0.189L0.678,-0.678C0.685,-0.69 0.692,-0.699 0.699,-0.705C0.707,-0.71 0.717,-0.712 0.731,-0.712C0.746,-0.712 0.757,-0.708 0.765,-0.7C0.773,-0.691 0.777,-0.679 0.777,-0.663L0.777,-0.042C0.777,-0.026 0.773,-0.014 0.766,-0.006C0.758,0.003 0.746,0.007 0.731,0.007C0.715,0.007 0.704,0.003 0.696,-0.006C0.688,-0.014 0.684,-0.026 0.684,-0.042L0.684,-0.558L0.706,-0.558L0.474,-0.129C0.469,-0.119 0.463,-0.112 0.457,-0.107C0.451,-0.103 0.443,-0.1 0.432,-0.1C0.421,-0.1 0.412,-0.103 0.406,-0.108C0.399,-0.113 0.393,-0.12 0.388,-0.129L0.154,-0.559L0.178,-0.559L0.178,-0.042C0.178,-0.026 0.174,-0.014 0.166,-0.006C0.159,0.003 0.147,0.007 0.132,0.007Z" style="fill-rule:nonzero;"/>
            </g>
        </g>
    </g>
</svg>
